<?xml version="1.0" standalone="no"?>
<!DOCTYPE svg PUBLIC "-//W3C//DTD SVG 20010904//EN"
 "http://www.w3.org/TR/2001/REC-SVG-20010904/DTD/svg10.dtd">
<svg version="1.0" xmlns="http://www.w3.org/2000/svg"
 width="512.000000pt" height="512.000000pt" viewBox="0 0 512.000000 512.000000"
 preserveAspectRatio="xMidYMid meet">
<metadata>
Created by potrace 1.14, written by Peter Selinger 2001-2017
</metadata>
<g transform="translate(0.000000,512.000000) scale(0.100000,-0.100000)"
fill="#000000" stroke="none">
<path d="M1900 5105 c-114 -15 -156 -23 -270 -50 -193 -46 -453 -158 -621
-266 -339 -220 -621 -534 -795 -889 -83 -170 -154 -390 -180 -560 -3 -19 -7
-41 -9 -48 -11 -32 -20 -179 -20 -327 1 -210 11 -302 52 -475 13 -58 26 -112
28 -120 8 -36 69 -199 104 -278 72 -164 230 -411 337 -527 15 -16 48 -52 73
-80 106 -115 316 -282 476 -378 54 -32 162 -85 268 -132 102 -44 350 -115 460
-130 27 -4 57 -8 67 -10 146 -28 447 -21 650 15 159 29 156 28 295 74 235 78
422 175 608 314 l111 83 645 -644 c355 -355 656 -650 668 -656 66 -34 150 -21
210 32 38 33 51 60 59 119 12 84 23 71 -667 763 l-649 650 89 122 c49 68 96
135 104 150 8 16 36 66 61 113 78 141 181 421 201 545 3 16 10 53 15 80 29
156 40 401 25 570 -4 53 -36 246 -50 300 -56 233 -160 474 -287 665 -35 53
-68 102 -75 110 -7 8 -34 42 -60 75 -183 233 -455 452 -724 582 -179 88 -397
159 -569 188 -47 8 -101 17 -120 20 -72 12 -416 12 -510 0z m505 -384 c28 -6
64 -12 80 -15 44 -6 190 -44 238 -62 67 -25 78 -30 167 -70 563 -251 975 -834
1026 -1449 5 -55 5 -261 0 -310 -31 -331 -151 -642 -355 -915 -56 -76 -272
-299 -308 -318 -17 -9 -19 -6 -19 36 -3 121 -9 192 -21 252 -54 262 -199 491
-410 647 l-62 46 47 50 c65 68 63 67 98 117 162 233 194 535 85 804 -93 230
-287 411 -526 491 -219 73 -462 51 -680 -63 -118 -62 -261 -199 -329 -317 -55
-95 -101 -233 -111 -330 -4 -38 -8 -79 -9 -90 -11 -74 39 -296 86 -390 34 -67
99 -157 155 -216 l53 -56 -57 -43 c-121 -91 -241 -231 -312 -364 -32 -62 -79
-183 -87 -226 -3 -14 -10 -45 -16 -70 -5 -25 -12 -106 -14 -180 -3 -74 -7
-136 -9 -138 -8 -8 -129 93 -217 181 -179 179 -321 401 -409 640 -32 86 -74
247 -83 317 -3 25 -9 56 -12 70 -10 44 -12 322 -3 395 21 171 24 185 54 290
94 324 259 600 489 814 21 20 50 47 65 61 35 34 182 138 256 182 169 101 374
180 550 213 48 8 157 24 195 28 71 7 357 -2 405 -12z m-71 -1061 c191 -63 318
-242 319 -449 1 -272 -215 -486 -484 -480 -356 8 -577 378 -417 699 26 51 25
50 93 120 121 125 314 169 489 110z m11 -1334 c261 -68 457 -287 502 -561 9
-55 7 -409 -2 -420 -21 -24 -281 -105 -385 -120 -25 -3 -58 -8 -74 -12 -72
-14 -269 -18 -391 -8 -140 12 -327 53 -438 97 l-58 23 1 205 c1 181 5 230 24
315 11 50 50 138 85 191 109 164 277 275 456 301 22 3 42 7 44 9 9 8 182 -7
236 -20z"/>
</g>
</svg>
